<?xml version="1.0" standalone="no"?>
<!DOCTYPE svg PUBLIC "-//W3C//DTD SVG 20010904//EN"
 "http://www.w3.org/TR/2001/REC-SVG-20010904/DTD/svg10.dtd">
<svg version="1.0" xmlns="http://www.w3.org/2000/svg"
 width="700.000000pt" height="700.000000pt" viewBox="0 0 700.000000 700.000000"
 preserveAspectRatio="xMidYMid meet">
<metadata>
Created by potrace 1.14, written by Peter Selinger 2001-2017
</metadata>
<g transform="translate(0.000000,700.000000) scale(0.100000,-0.100000)"
fill="#000000" stroke="none">
<path d="M2049 6996 c-2 -2 -33 -7 -69 -10 -225 -19 -505 -99 -730 -208 -119
-57 -281 -153 -288 -170 -2 -5 -8 -8 -13 -8 -32 0 -311 -250 -414 -370 -232
-271 -401 -608 -479 -955 -15 -66 -29 -133 -31 -150 -2 -16 -7 -59 -12 -95
-10 -80 -11 -2960 -1 -3050 5 -36 10 -74 12 -85 2 -11 7 -42 10 -68 13 -94 66
-282 122 -432 34 -90 149 -308 213 -405 151 -225 358 -438 576 -591 111 -78
295 -178 440 -239 69 -30 266 -91 335 -104 14 -3 60 -12 104 -20 43 -9 115
-19 160 -24 107 -9 2952 -9 3036 1 113 13 135 16 231 36 299 62 671 236 900
421 96 78 118 98 214 195 322 323 531 741 612 1220 17 103 18 198 18 1595 0
1288 -4 1604 -20 1630 -2 3 -6 28 -9 56 -8 72 -58 262 -101 379 -59 165 -195
424 -277 530 -5 6 -36 46 -70 90 -75 97 -236 259 -338 342 -284 229 -618 382
-1000 459 -14 2 -43 7 -65 10 -22 3 -53 8 -70 11 -32 7 -2989 16 -2996 9z"/>
</g>
</svg>
